<?xml version="1.0" standalone="no"?>
<!DOCTYPE svg PUBLIC "-//W3C//DTD SVG 20010904//EN"
 "http://www.w3.org/TR/2001/REC-SVG-20010904/DTD/svg10.dtd">
<svg version="1.0" xmlns="http://www.w3.org/2000/svg"
 width="450" height="125" viewBox="0 0 450 125"
 preserveAspectRatio="xMidYMid meet">
<metadata>
Created by potrace 1.16, written by Peter Selinger 2001-2019
</metadata>
<g transform="translate(0,129) scale(0.1,-0.1)"
fill="#005ca9" stroke="none">
<path d="M3740 1280 c-122 -16 -237 -66 -320 -140 l-45 -39 37 -1 c28 0 51 10
87 35 180 130 435 132 627 6 310 -203 348 -638 79 -890 -112 -104 -234 -151
-395 -151 -111 0 -213 31 -303 91 -43 28 -70 39 -96 39 l-36 -1 45 -40 c52
-45 183 -112 254 -128 70 -17 224 -15 296 4 118 30 215 89 301 183 69 74 101
128 135 228 23 67 27 96 27 189 0 96 -3 121 -29 195 -38 107 -86 180 -172 262
-130 122 -316 182 -492 158z"/>
<path d="M534 1029 c-208 -35 -388 -147 -462 -288 -90 -170 -49 -333 103 -411
l68 -35 317 -3 c349 -4 385 0 525 59 100 41 187 96 337 209 128 97 258 170
378 211 59 21 88 23 319 27 l253 4 -43 -79 c-24 -43 -87 -157 -141 -253 l-98
-175 30 -3 c16 -2 57 4 90 12 169 44 279 141 404 358 l79 138 247 0 c292 0
327 7 395 75 30 30 49 59 59 96 9 29 16 56 16 61 0 5 -360 7 -802 6 -790 -4
-804 -4 -873 -25 -149 -46 -256 -107 -463 -261 -147 -110 -236 -163 -322 -194
-60 -21 -84 -23 -328 -26 -228 -3 -266 -1 -288 12 -52 35 -18 122 73 188 92
66 102 68 420 68 l286 0 115 86 c63 47 139 101 170 120 l57 34 -435 -1 c-239
-1 -458 -5 -486 -10z"/>
<path d="M3540 1012 c0 -43 -25 -119 -54 -163 -14 -21 -26 -41 -26 -44 0 -3
101 -5 225 -5 212 0 226 -1 245 -20 11 -11 20 -27 20 -36 0 -59 -97 -160 -186
-193 -53 -20 -75 -21 -564 -21 l-508 0 -32 -52 c-18 -29 -62 -84 -98 -121
l-67 -68 615 4 c695 4 675 2 847 87 306 152 370 514 110 631 -49 23 -65 24
-289 27 l-238 3 0 -29z"/>
</g>
</svg>
